# xmcd
#
# Track frame offsets:
#	150
#	15073
#	25265
#	31742
#	43917
#	56224
#	72405
#	93694
#	104164
#	113118
#	129786
#	137736
#
# Disc length: 1951 seconds
#
# Revision: 1
# Processed by: cddbd v1.5.2PL0 Copyright (c) Steve Scherf et al.
# Submitted via: audiograbber 1.83.01
#
DISCID=a2079d0c
DTITLE=Georg Neureiter - Deepest Blue
DYEAR=2013
DGENRE=
TTITLE0=Wüd
TTITLE1=Wings
TTITLE2=All Day Long
TTITLE3=Foggy Train
TTITLE4=Black Finger Blues
TTITLE5=Major Voice
TTITLE6=Deepest Blue
TTITLE7=Mohnfeld
TTITLE8=When I close my Eyes
TTITLE9=Australia
TTITLE10=Rattlesnake
TTITLE11=Dreams
EXTD=
EXTT0=
EXTT1=
EXTT2=
EXTT3=
EXTT4=
EXTT5=
EXTT6=
EXTT7=
EXTT8=
EXTT9=
EXTT10=
EXTT11=
PLAYORDER=
